<?xml version="1.0" standalone="no"?>
<!DOCTYPE svg PUBLIC "-//W3C//DTD SVG 20010904//EN"
 "http://www.w3.org/TR/2001/REC-SVG-20010904/DTD/svg10.dtd">
<svg version="1.0" xmlns="http://www.w3.org/2000/svg"
 width="479.000000pt" height="980.000000pt" viewBox="0 0 479.000000 980.000000"
 preserveAspectRatio="xMidYMid meet">

<g transform="translate(0.000000,980.000000) scale(0.100000,-0.100000)"
fill="#000000" stroke="none">
<path d="M1968 7793 l-278 -278 0 -2555 0 -2555 342 -342 343 -343 342 342
343 343 0 2555 0 2555 -280 280 -280 280 0 -2715 c0 -1493 -4 -2720 -8 -2726
-14 -22 -75 -46 -116 -46 -50 0 -85 13 -108 39 -17 18 -18 166 -20 2731 l-3
2712 -277 -277z"/>
<path d="M1048 6872 c-219 -218 -423 -428 -454 -467 -256 -315 -439 -750 -495
-1175 -16 -125 -17 -430 0 -550 20 -150 79 -406 118 -510 141 -377 396 -710
978 -1275 l255 -247 0 2311 c0 1271 -1 2311 -2 2311 -2 0 -182 -179 -400 -398z
m-158 -1914 c-1 -981 6 -912 -76 -741 -57 118 -107 270 -136 415 -19 96 -23
145 -23 323 0 230 12 325 66 507 40 135 144 368 164 368 3 0 5 -393 5 -872z"/>
<path d="M3300 6845 l0 -424 23 -12 c43 -23 173 -128 260 -209 l87 -82 0
-1544 c0 -849 4 -1544 8 -1544 15 0 438 434 500 513 l62 78 0 962 0 962 210
-210 c239 -239 225 -236 194 -41 -64 413 -227 787 -479 1101 -45 56 -852 875
-862 875 -2 0 -3 -191 -3 -425z"/>
</g>
</svg>
